<?xml version="1.0" encoding="utf-8"?>
<!-- Generator: Adobe Illustrator 21.0.0, SVG Export Plug-In . SVG Version: 6.00 Build 0)  -->
<svg version="1.1" id="Layer_1" xmlns="http://www.w3.org/2000/svg" xmlns:xlink="http://www.w3.org/1999/xlink" x="0px" y="0px"
	 viewBox="0 0 140 44" enable-background="new 0 0 140 44" xml:space="preserve">
<path fill="#736357" d="M91,27H69c-2.209137,0-4-1.790861-4-4V9c0-2.209139,1.790863-4,4-4h22c2.209137,0,4,1.790861,4,4v14
	C95,25.209139,93.209137,27,91,27z"/>
<path fill="#C7B299" d="M87,23.307692H73c-2.209137,0-4-1.790861-4-4v-5.076922h22v5.076922
	C91,21.51683,89.209137,23.307692,87,23.307692z"/>
<path fill="#A67C52" d="M87,17.923077H73c-2.209137,0-4-1.790861-4-4V6.692307c0-2.209139,1.790863-4,4-4h14
	c2.209137,0,4,1.790861,4,4v7.230769C91,16.132215,89.209137,17.923077,87,17.923077z"/>
</svg>
