<?xml version="1.0" encoding="utf-8"?>
<!-- Generator: Adobe Illustrator 21.0.0, SVG Export Plug-In . SVG Version: 6.00 Build 0)  -->
<svg version="1.1" id="Layer_1" xmlns="http://www.w3.org/2000/svg" xmlns:xlink="http://www.w3.org/1999/xlink" x="0px" y="0px"
	 viewBox="0 0 140 44" enable-background="new 0 0 140 44" xml:space="preserve">
<path fill="#736357" d="M91,26.999846H69c-2.209137,0-4-1.790861-4-4V8.999846c0-2.209139,1.790863-4,4-4h22
	c2.209137,0,4,1.790861,4,4v13.999999C95,25.208984,93.209137,26.999846,91,26.999846z"/>
<path fill="#C7B299" d="M87,23.307539H73c-2.209137,0-4-1.790861-4-4v-5.076923h22v5.076923
	C91,21.516678,89.209137,23.307539,87,23.307539z"/>
<path fill="#A67C52" d="M87,22.922922H73c-2.209137,0-4-1.790859-4-4v-7.230768c0-2.209139,1.790863-4,4-4h14
	c2.209137,0,4,1.790861,4,4v7.230768C91,21.132063,89.209137,22.922922,87,22.922922z"/>
</svg>
