<?xml version="1.0" encoding="utf-8"?>
<!-- Generator: Adobe Illustrator 21.0.0, SVG Export Plug-In . SVG Version: 6.00 Build 0)  -->
<svg version="1.1" id="Layer_1" xmlns="http://www.w3.org/2000/svg" xmlns:xlink="http://www.w3.org/1999/xlink" x="0px" y="0px"
	 viewBox="0 0 140 44" enable-background="new 0 0 140 44" xml:space="preserve">
<rect x="33" y="1" fill="#C7B299" width="30" height="30"/>
<rect x="35" y="3" fill="#C59B6C" width="26" height="26"/>
<rect x="35" y="3" fill="#A67C52" width="26" height="2"/>
<line fill="none" stroke="#C7B299" stroke-width="2" stroke-miterlimit="10" x1="48" y1="5" x2="48" y2="29"/>
<line fill="none" stroke="#A67C52" stroke-width="2" stroke-miterlimit="10" x1="52" y1="14" x2="52" y2="18"/>
<line fill="none" stroke="#A67C52" stroke-width="2" stroke-miterlimit="10" x1="44" y1="14" x2="44" y2="18"/>
<path fill="#A67C52" d="M95,28H65v2c0,0.552284,0.447716,1,1,1h28c0.552284,0,1-0.447716,1-1V28z"/>
<path fill="#C7B299" d="M69,28h-4V2c0-0.552285,0.447716-1,1-1h3V28z"/>
<path fill="#C7B299" d="M95,28h-4V1h3c0.552284,0,1,0.447715,1,1V28z"/>
<rect x="69" y="1" fill="#C7B299" width="22" height="3"/>
<rect x="69" y="25" fill="#C7B299" width="22" height="3"/>
<rect x="69" y="4" fill="#A67C52" width="22" height="3"/>
<rect x="69" y="6" fill="#C59B6C" width="22" height="19"/>
<line fill="none" stroke="#C7B299" stroke-width="2" stroke-miterlimit="10" x1="80" y1="6" x2="80" y2="25"/>
<line fill="none" stroke="#A67C52" stroke-width="3" stroke-linecap="round" stroke-linejoin="round" stroke-miterlimit="10" x1="86" y1="14" x2="86" y2="18"/>
<line fill="none" stroke="#A67C52" stroke-width="3" stroke-linecap="round" stroke-linejoin="round" stroke-miterlimit="10" x1="74" y1="14" x2="74" y2="18"/>
</svg>
