<?xml version="1.0" encoding="utf-8"?>
<!-- Generator: Adobe Illustrator 21.0.0, SVG Export Plug-In . SVG Version: 6.00 Build 0)  -->
<svg version="1.1" id="Layer_1" xmlns="http://www.w3.org/2000/svg" xmlns:xlink="http://www.w3.org/1999/xlink" x="0px" y="0px"
	 viewBox="0 0 140 44" enable-background="new 0 0 140 44" xml:space="preserve">
<g class="ldl-layer" transform="matrix(1 0 0 0.9999999999999998 -7.105427357601002e-15 8.881784197001252e-16) matrix(1 0 0 1 0 0)"><g class="ldl-ani" style="transform: scale(0.91); transform-origin: 48px 40px; animation: 1s linear 0s infinite normal forwards running breath-e9d2c079-4008-45dc-9e63-d90a51444cc3;"><ellipse ry="2.535681" rx="8.193611" cy="40" cx="48" opacity="0.2" style="cx: 48px; cy: 38.3; opacity: 0.2; rx: 8.19361px; ry: 2.53568px;"></ellipse></g></g>

<g class="ldl-layer" transform="matrix(1 0 0 0.9999999999999998 -7.105427357601002e-15 2.6645352591003757e-15) matrix(1 0 0 1 0 0)"><g class="ldl-ani" style="transform-origin: 48px 21.9283px; transform: translate(0px, -1px); animation: 1s linear 0s infinite normal forwards running wander-v-2c059fc0-6710-423b-a833-60130f5ceaee;">
<g opacity="0.9">
	<polygon fill="#6ABD45" points="43.686279,7.423035 40,10.601135 40,29.398804 43.686279,32.576904 52.313721,32.576904 
		56,29.398804 56,10.601135 52.313721,7.423035 	"/>
	<polygon fill="#3BB54A" points="43.686279,7.423035 42.615234,2 35,8.789429 40,10.601135 	"/>
	<polygon fill="#009247" points="40,10.601135 35,8.789429 35,31.210571 40,29.398804 	"/>
	<polygon fill="#C4DD83" points="52.313721,7.423035 53.384766,2 42.615234,2 43.686279,7.423035 	"/>
	<polygon fill="#E6E6E6" points="56,10.601135 61,8.789429 53.384766,2 52.313721,7.423035 	"/>
	<polygon fill="#006937" points="43.686279,32.576904 42.615234,38 53.384766,38 52.313721,32.576904 	"/>
	<polygon fill="#3BB54A" points="40,29.398804 35,31.210571 42.615234,38 43.686279,32.576904 	"/>
	<polygon fill="#3BB54A" points="56,10.601135 56,29.398804 61,31.210571 61,8.789429 	"/>
	<polygon fill="#009247" points="52.313721,32.576904 53.384766,38 61,31.210571 56,29.398804 	"/>
	<polygon opacity="0.2" fill="#F7EC13" points="35,8.789429 35,21 48,21 48,2 42.615234,2 	"/>
	<polygon opacity="0.2" fill="#F7EC13" points="48,38 53.384766,38 61,31.210571 61,21 48,21 	"/>
	<polygon opacity="0.3" fill="#C4DD83" points="40,21 40,27 56,17 56,14 	"/>
	<polygon opacity="0.3" fill="#C4DD83" points="40,15 40,19 56,13 56,11 	"/>
</g></g></g>

<path style="animation: 1s linear 0s infinite normal forwards running blink-dd151398-1545-4d6e-9fb5-9f967decae16;" fill="#FFD113" d="M57.460072,7.455489c-0.931778-0.374649-1.675465-1.118337-2.050114-2.050115
	c-0.099037-0.246308-0.431274-0.246308-0.530308,0c-0.374649,0.931778-1.11834,1.675466-2.050117,2.050115
	c-0.246307,0.099036-0.246307,0.431273,0,0.530308c0.931778,0.374649,1.675468,1.118337,2.050117,2.050115
	c0.099033,0.246308,0.431271,0.246308,0.530308,0c0.374649-0.931778,1.118336-1.675466,2.050114-2.050115
	C57.706379,7.886761,57.706379,7.554524,57.460072,7.455489z"/>
<path style="animation: 1s linear -0.255s infinite normal forwards running blink-dd151398-1545-4d6e-9fb5-9f967decae16;" fill="#FFD113" d="M43.289555,14.164124c-1.261978-0.507414-2.269207-1.514645-2.776623-2.776619
	c-0.134129-0.333593-0.584103-0.333593-0.718231,0c-0.507416,1.261974-1.514648,2.269205-2.776623,2.776619
	c-0.333591,0.134131-0.333591,0.584104,0,0.718235c1.261974,0.507415,2.269207,1.514645,2.776623,2.776619
	c0.134129,0.333593,0.584103,0.333593,0.718231,0c0.507416-1.261974,1.514645-2.269204,2.776623-2.776619
	C43.623146,14.748227,43.623146,14.298255,43.289555,14.164124z"/>
<path style="animation: 1s linear -0.495s infinite normal forwards running blink-dd151398-1545-4d6e-9fb5-9f967decae16;" fill="#FFD113" d="M54.497017,23.173805c-0.745422-0.299721-1.34037-0.89467-1.640091-1.640093
	c-0.079227-0.197046-0.345016-0.197046-0.424248,0c-0.299717,0.745422-0.894669,1.340372-1.640091,1.640093
	c-0.197044,0.079227-0.197044,0.345016,0,0.424246c0.745422,0.299719,1.340374,0.894669,1.640091,1.640091
	c0.079231,0.197048,0.34502,0.197048,0.424248,0c0.299721-0.745422,0.894669-1.340372,1.640091-1.640091
	C54.694065,23.518822,54.694065,23.253033,54.497017,23.173805z"/>
<path style="animation: 1s linear -0.755s infinite normal forwards running blink-dd151398-1545-4d6e-9fb5-9f967decae16;" fill="#FFD113" d="M44.938335,34.753567c-1.261974-0.507416-2.269207-1.514645-2.776619-2.776621
	c-0.134132-0.333593-0.584103-0.333593-0.718235,0c-0.507416,1.261976-1.514645,2.269205-2.776619,2.776621
	c-0.333595,0.134129-0.333595,0.584103,0,0.718235c1.261974,0.507412,2.269203,1.514645,2.776619,2.776619
	c0.134132,0.333591,0.584103,0.333591,0.718235,0c0.507412-1.261974,1.514645-2.269207,2.776619-2.776619
	C45.271927,35.337669,45.271927,34.887695,44.938335,34.753567z"/>
<style id="blink-dd151398-1545-4d6e-9fb5-9f967decae16" data-anikit="">@keyframes blink-dd151398-1545-4d6e-9fb5-9f967decae16 {
  0% { opacity: 1; }
  52.965% { opacity: 1; }
  145.035% { opacity: 0; }
  7.93% { opacity: 0; }
  100% { opacity: 1; }
}</style>

<style id="breath-e9d2c079-4008-45dc-9e63-d90a51444cc3" data-anikit="">@keyframes breath-e9d2c079-4008-45dc-9e63-d90a51444cc3
{
  0% {
    animation-timing-function: cubic-bezier(0.9647,0.2413,-0.0705,0.7911);
    transform: scale(0.9099999999999999);
  }
  51% {
    animation-timing-function: cubic-bezier(0.9226,0.2631,-0.0308,0.7628);
    transform: scale(1.02994);
  }
  100% {
    transform: scale(0.9099999999999999);
  }
}</style><style id="wander-v-2c059fc0-6710-423b-a833-60130f5ceaee" data-anikit="">@keyframes wander-v-2c059fc0-6710-423b-a833-60130f5ceaee
{
  0% {
    animation-timing-function: cubic-bezier(0.7806,0.0715,0.8998,0.731);
    transform: translate(0,-1px);
  }
  17.5% {
    animation-timing-function: cubic-bezier(0.484,0.3308,0.6853,0.6667);
    transform: translate(0,-0.618px);
  }
  27.6% {
    animation-timing-function: cubic-bezier(0.2459,0.3343,0.4923,0.6717);
    transform: translate(0,0.248px);
  }
  35.1% {
    animation-timing-function: cubic-bezier(0.1317,0.3401,0.311,0.9176);
    transform: translate(0,0.749px);
  }
  50.1% {
    animation-timing-function: cubic-bezier(0.7773,0.0708,0.9008,0.735);
    transform: translate(0,1px);
  }
  67.6% {
    animation-timing-function: cubic-bezier(0.4888,0.331,0.6153,0.6674);
    transform: translate(0,0.616px);
  }
  80% {
    animation-timing-function: cubic-bezier(0.2539,0.3274,0.5671,0.676);
    transform: translate(0,-0.457px);
  }
  85% {
    animation-timing-function: cubic-bezier(0.1302,0.3349,0.3113,0.9183);
    transform: translate(0,-0.747px);
  }
  100% {
    transform: translate(0,-1px);
  }
}</style>
</svg>
