<?xml version="1.0" encoding="utf-8"?>
<!-- Generator: Adobe Illustrator 21.0.0, SVG Export Plug-In . SVG Version: 6.00 Build 0)  -->
<svg version="1.1" id="Layer_1" xmlns="http://www.w3.org/2000/svg" xmlns:xlink="http://www.w3.org/1999/xlink" x="0px" y="0px"
	 viewBox="0 0 140 44" enable-background="new 0 0 140 44" xml:space="preserve">
<rect x="69" y="7" fill="#191919" width="22" height="18"/>
<path fill="#808080" d="M74,25h-6v-5c0-0.552284,0.447716-1,1-1h5V25z"/>
<path fill="#CCCCCB" d="M92,25h-6V8c0-0.552285,0.447716-1,1-1h5V25z"/>
<path fill="#B3B4B4" d="M86,25h-6V12c0-0.552285,0.447716-1,1-1h5V25z"/>
<path fill="#999999" d="M80,25h-6v-9c0-0.552285,0.447716-1,1-1h5V25z"/>
<rect x="35" y="3" fill="#191919" width="26" height="26"/>
<g>
	<rect x="1" y="1" fill="#C7B299" width="30" height="30"/>
	<rect x="3" y="3" fill="#191919" width="26" height="26"/>
	<rect x="23" y="7" fill="#B3B4B4" width="6" height="22"/>
	<rect x="17" y="11" fill="#999999" width="6" height="18"/>
	<rect x="11" y="15" fill="#666766" width="6" height="14"/>
	<rect x="5" y="19" fill="#4D4D4E" width="6" height="10"/>
</g>
<path fill="#B3B4B4" d="M54,29h6V7h-5.003742C54.446041,7,54,7.446039,54,7.996256V29z"/>
<path fill="#999999" d="M48,29h6V11h-5.003742C48.446041,11,48,11.446039,48,11.996257V29z"/>
<path fill="#666766" d="M42,29h6V15h-5.003742C42.446041,15,42,15.446039,42,15.996257V29z"/>
<path fill="#4D4D4E" d="M36,29h6V19h-5.003742C36.446041,19,36,19.446039,36,19.996256V29z"/>
<rect x="35" y="3" fill="none" stroke="#C59B6C" stroke-width="4" stroke-linecap="round" stroke-linejoin="round" stroke-miterlimit="10" width="26" height="26"/>
<line fill="none" stroke="#A67C52" stroke-width="2" stroke-linecap="round" stroke-linejoin="round" stroke-miterlimit="10" x1="38" y1="4" x2="58" y2="4"/>
<line fill="none" stroke="#A67C52" stroke-width="2" stroke-linecap="round" stroke-linejoin="round" stroke-miterlimit="10" x1="34" y1="30" x2="62" y2="30"/>
<line fill="none" stroke="#A67C52" stroke-width="2" stroke-linecap="round" stroke-linejoin="round" stroke-miterlimit="10" x1="37" y1="5" x2="37" y2="26"/>
<line fill="none" stroke="#A67C52" stroke-width="2" stroke-linecap="round" stroke-linejoin="round" stroke-miterlimit="10" x1="59" y1="5" x2="59" y2="26"/>
<path fill="#A67C52" d="M95,28H65v2c0,0.552284,0.447716,1,1,1h28c0.552284,0,1-0.447716,1-1V28z"/>
<path fill="#C7B299" d="M69,28h-4V2c0-0.552285,0.447716-1,1-1h3V28z"/>
<path fill="#C7B299" d="M95,28h-4V1h3c0.552284,0,1,0.447715,1,1V28z"/>
<rect x="69" y="1" fill="#C7B299" width="22" height="3"/>
<rect x="69" y="25" fill="#C7B299" width="22" height="3"/>
<rect x="69" y="4" fill="#A67C52" width="22" height="3"/>
</svg>
