<?xml version="1.0" encoding="utf-8"?>
<!-- Generator: Adobe Illustrator 21.0.0, SVG Export Plug-In . SVG Version: 6.00 Build 0)  -->
<svg version="1.1" id="Layer_1" xmlns="http://www.w3.org/2000/svg" xmlns:xlink="http://www.w3.org/1999/xlink" x="0px" y="0px"
	 viewBox="0 0 140 44" enable-background="new 0 0 140 44" xml:space="preserve">
<rect x="64" opacity="0.07" width="32" height="32"/>
<g>
	<path fill="#DCDCDA" d="M70.19368,23.078831C68.29425,23.449583,66.999992,25.236536,67,27.171806v0.000004
		C67,28.181492,67.818504,29,68.828186,29h4.34362C74.181488,29,75,28.18149,75,27.171808V27
		C75,24.527245,72.756401,22.578609,70.19368,23.078831z"/>
	<path fill="#CCCCCB" d="M72.5,28c-2.14209,0-3.99353-1.227173-4.901611-3.014404C67.220337,25.635986,67,26.388855,67,27.171814
		C67,28.181458,67.818481,29,68.828125,29h4.34375c0.929443,0,1.688354-0.696106,1.804443-1.593872
		C74.231445,27.782959,73.391846,28,72.5,28z"/>
</g>
<g>
	<path fill="#DCDCDA" d="M74.596848,14.039421c-0.949715,0.185376-1.59684,1.078851-1.59684,2.046484v0.000002
		C73.000008,16.590748,73.409264,17,73.914101,17h2.171806C76.590752,17,77,16.590746,77,16.085905v-0.085903
		C77,14.763627,75.878204,13.78931,74.596848,14.039421z"/>
	<path fill="#CCCCCB" d="M75.750008,16.500002c-1.071045,0-1.996765-0.613586-2.450806-1.5072
		c-0.189026,0.325194-0.299194,0.701629-0.299194,1.093107C73.000008,16.590729,73.409248,17,73.91407,17h2.171875
		c0.464722,0,0.84417-0.348053,0.902214-0.796934C76.61573,16.391481,76.19593,16.500002,75.750008,16.500002z"/>
</g>
<g>
	<path fill="#DCDCDA" d="M85.59684,24.03941C84.647125,24.224785,84,25.118259,84,26.085894v0.000002
		c0,0.504839,0.409256,0.914093,0.914093,0.914093h2.171806c0.504837,0,0.914093-0.409254,0.914093-0.914095V25.99999
		C87.999992,24.763615,86.878197,23.789299,85.59684,24.03941z"/>
	<path fill="#CCCCCB" d="M86.75,26.499989c-1.071045,0-1.996765-0.613585-2.450806-1.507198
		C84.110168,25.317986,84,25.694418,84,26.085897c0,0.50482,0.409241,0.914091,0.914062,0.914091h2.171867
		c0.464722,0,0.844177-0.348053,0.902222-0.796934C87.615715,26.391468,87.195915,26.499989,86.75,26.499989z"/>
</g>
<g>
	<path fill="#DCDCDA" d="M78.19368,3.078831C76.29425,3.449583,74.999992,5.236536,75,7.171807v0.000004
		C75,8.181492,75.818504,9,76.828186,9h4.34362C82.181488,9,83,8.18149,83,7.171808V7
		C83,4.527246,80.756401,2.578609,78.19368,3.078831z"/>
	<path fill="#CCCCCB" d="M80.5,8c-2.14209,0-3.99353-1.227173-4.901611-3.014404C75.220337,5.635986,75,6.388855,75,7.171814
		C75,8.181458,75.818481,9,76.828125,9h4.34375c0.929443,0,1.688354-0.696106,1.804443-1.593872
		C82.231445,7.782959,81.391846,8,80.5,8z"/>
</g>
<g>
	<path fill="#DCDCDA" d="M89.19368,13.078831C87.294258,13.449583,86,15.236536,86,17.171806v0.000004
		C86,18.181492,86.818512,19,87.828194,19h4.34362C93.181496,19,94,18.18149,94,17.171808V17
		C94,14.527246,91.756409,12.578609,89.19368,13.078831z"/>
	<path fill="#CCCCCB" d="M91.5,18c-2.14209,0-3.99353-1.227173-4.901611-3.014404C86.220337,15.635986,86,16.388855,86,17.171814
		C86,18.181458,86.818481,19,87.828125,19h4.34375c0.929443,0,1.688354-0.696106,1.804443-1.593872
		C93.231445,17.782959,92.391846,18,91.5,18z"/>
</g>
</svg>
