<?xml version="1.0" encoding="utf-8"?>
<!-- Generator: Adobe Illustrator 21.0.0, SVG Export Plug-In . SVG Version: 6.00 Build 0)  -->
<svg version="1.1" id="Layer_1" xmlns="http://www.w3.org/2000/svg" xmlns:xlink="http://www.w3.org/1999/xlink" x="0px" y="0px"
	 viewBox="0 0 140 44" enable-background="new 0 0 140 44" xml:space="preserve">
<ellipse fill="#8F1D21" cx="39.894737" cy="20.982691" rx="5.894737" ry="2.483976"/>
<path fill="#C7797C" d="M39.894741,21.884462h-0.000008c-1.627785,0-2.947365-1.050638-2.947365-2.346664L38.33271,1.171222
	C38.382336,0.513317,39.066929,0,39.894737,0l0,0c0.827805,0,1.512402,0.513317,1.562027,1.171222l1.385342,18.366575
	C42.842106,20.833824,41.522526,21.884462,39.894741,21.884462z"/>
<ellipse fill="#8F1D21" cx="56.105263" cy="20.982691" rx="5.894737" ry="2.483976"/>
<path fill="#C7797C" d="M56.105267,21.884462h-0.000008c-1.627785,0-2.947365-1.050638-2.947365-2.346664l1.385342-18.366575
	C54.592861,0.513317,55.277458,0,56.105263,0l0,0c0.827805,0,1.512402,0.513317,1.562027,1.171222l1.385342,18.366575
	C59.052631,20.833824,57.733051,21.884462,56.105267,21.884462z"/>
<ellipse fill="#8F1D21" cx="48" cy="31.249357" rx="5.894737" ry="2.483976"/>
<path fill="#A67373" d="M48.000004,32.151131h-0.000008c-1.627785,0-2.947365-1.050638-2.947365-2.346666l1.385342-18.366575
	C46.487598,10.779984,47.172195,10.266666,48,10.266666l0,0c0.827805,0,1.512402,0.513317,1.562027,1.171223l1.385342,18.366575
	C50.947369,31.100492,49.627789,32.151131,48.000004,32.151131z"/>
<ellipse fill="#8F1D21" cx="39.894737" cy="41.516026" rx="5.894737" ry="2.483976"/>
<path fill="#E0A2A5" d="M39.894741,42.417797h-0.000008c-1.627785,0-2.947365-1.05064-2.947365-2.346664l1.385342-18.366577
	c0.049625-0.657906,0.734219-1.171223,1.562027-1.171223l0,0c0.827805,0,1.512402,0.513317,1.562027,1.171223l1.385342,18.366577
	C42.842106,41.367157,41.522526,42.417797,39.894741,42.417797z"/>
<ellipse fill="#8F1D21" cx="56.105263" cy="41.516026" rx="5.894737" ry="2.483976"/>
<path fill="#E0A2A5" d="M56.105267,42.417797h-0.000008c-1.627785,0-2.947365-1.05064-2.947365-2.346664l1.385342-18.366577
	c0.049625-0.657906,0.734222-1.171223,1.562027-1.171223l0,0c0.827805,0,1.512402,0.513317,1.562027,1.171223l1.385342,18.366577
	C59.052631,41.367157,57.733051,42.417797,56.105267,42.417797z"/>
</svg>
