<?xml version="1.0" encoding="utf-8"?>
<!-- Generator: Adobe Illustrator 21.0.0, SVG Export Plug-In . SVG Version: 6.00 Build 0)  -->
<svg version="1.1" id="Layer_1" xmlns="http://www.w3.org/2000/svg" xmlns:xlink="http://www.w3.org/1999/xlink" x="0px" y="0px"
	 viewBox="0 0 140 44" enable-background="new 0 0 140 44" xml:space="preserve">
<path fill="#412312" d="M58,44H38c-3.313709,0-6-2.686291-6-6V6c0-3.313709,2.686291-6,6-6h20c3.313709,0,6,2.686291,6,6v32
	C64,41.313709,61.313709,44,58,44z"/>
<path fill="#2D180E" d="M58,44H38c-3.313709,0-6-2.686291-6-6v-0.000015C32,33.581715,35.581715,30,39.999985,30h16.000031
	C60.418285,30,64,33.581715,64,37.999985V38C64,41.313709,61.313709,44,58,44z"/>
<path fill="#5F3916" d="M56.000015,30H39.999985C35.581715,30,32,26.418283,32,22.000013V6c0-3.313709,2.686291-6,6-6h20
	c3.313709,0,6,2.686291,6,6v16.000013C64,26.418283,60.418285,30,56.000015,30z"/>
</svg>
