<?xml version="1.0" encoding="utf-8"?>
<!-- Generator: Adobe Illustrator 21.0.0, SVG Export Plug-In . SVG Version: 6.00 Build 0)  -->
<svg version="1.1" id="Layer_1" xmlns="http://www.w3.org/2000/svg" xmlns:xlink="http://www.w3.org/1999/xlink" x="0px" y="0px"
	 viewBox="0 0 140 44" enable-background="new 0 0 140 44" xml:space="preserve">
<g class="ldl-layer" transform="matrix(1 0 0 0.9999999999999998 -7.105427357601002e-15 8.881784197001252e-16) matrix(1 0 0 1 0 0)"><g class="ldl-ani" style="transform: scale(0.91); transform-origin: 48px 37px; animation: 1s linear 0s infinite normal forwards running breath-e9d2c079-4008-45dc-9e63-d90a51444cc3;"><ellipse ry="2.535681" rx="8.193611" cy="37" cx="48" opacity="0.2" style="cx: 48px; cy: 37px; opacity: 0.2; rx: 8.19361px; ry: 2.53568px;"></ellipse></g></g>

<g class="ldl-layer" transform="matrix(1 0 0 0.9999999999999998 -7.105427357601002e-15 2.6645352591003757e-15) matrix(1 0 0 1 0 0)"><g class="ldl-ani" style="transform-origin: 48px 21.9283px; transform: translate(0px, -1px); animation: 1s linear 0s infinite normal forwards running wander-v-2c059fc0-6710-423b-a833-60130f5ceaee;">
<g>
	<g>
		<path fill="#F7EC13" d="M64.000183,13.411084C64.000183,24.65546,48,33.770828,48,33.770828
			S31.999815,24.65546,31.999815,13.411084S48,1.770859,48,9.3899C48,1.770859,64.000183,2.166707,64.000183,13.411084z"/>
	</g>
	<g>
		<path fill="#6FCCDD" d="M38.946884,16.008755l-6.78133-0.624068c0.793442,4.880204,4.375423,9.255664,7.934895,12.513381
			l3.537895-3.632624C41.329163,22.177555,38.96595,19.253916,38.946884,16.008755z"/>
	</g>
	<g>
		<path fill="#2599AD" d="M38.943535,15.969786c0-2.35342,1.240528-3.861882,2.801277-4.573656l-3.109039-6.783383
			c-3.496876,0.97033-6.635958,3.818356-6.635958,8.798355c0,0.666016,0.060083,1.323939,0.165739,1.973585l6.78133,0.624068
			C38.946789,15.995642,38.943535,15.9829,38.943535,15.969786z"/>
	</g>
	<g>
		<path fill="#68BDCC" d="M57.056465,15.969786c0,0.013114-0.003254,0.025856-0.003349,0.038969l6.78133-0.624068
			c0.105656-0.649646,0.165737-1.30757,0.165737-1.973585c0-4.979999-3.13908-7.828024-6.635956-8.798355l-3.109039,6.783383
			C55.815937,12.107903,57.056465,13.616365,57.056465,15.969786z"/>
	</g>
	<g>
		<path fill="#59CAEB" d="M43.638344,24.265444l-3.537895,3.632624C44.066639,31.528086,48,33.770828,48,33.770828v-6.276686
			C48,27.494143,45.845306,26.260979,43.638344,24.265444z"/>
	</g>
	<g>
		<path fill="#31A8BD" d="M63.834446,15.384686l-6.78133,0.624068c-0.019066,3.245161-2.382278,6.1688-4.69146,8.256689
			l3.537895,3.632624C59.459023,24.64035,63.041004,20.264891,63.834446,15.384686z"/>
	</g>
	<g>
		<path fill="#2599AD" d="M48,27.494143v6.276686c0,0,3.933361-2.242743,7.899551-5.872761l-3.537895-3.632624
			C50.154694,26.260979,48,27.494143,48,27.494143z"/>
	</g>
	<g>
		<path fill="#31A8BD" d="M48,9.3899c0-4.244695-4.965366-5.997763-9.364227-4.777153l3.109039,6.783383
			C44.404999,10.182868,48,11.294567,48,14.55619v-0.594865V9.3899z"/>
	</g>
	<g>
		<path fill="#6FCCDD" d="M48,9.3899v4.571424v0.594865c0-3.261622,3.595001-4.373322,6.255188-3.16006l3.109039-6.783383
			C52.965366,3.392138,48,5.145205,48,9.3899z"/>
	</g>
	<g>
		<path fill="#B91F8E" d="M38.943535,15.969786C38.943535,22.334549,48,27.494143,48,27.494143V14.55619
			C48,9.380972,38.943535,9.605022,38.943535,15.969786z"/>
	</g>
	<g>
		<path fill="#B9529F" d="M48,14.55619v12.937953c0,0,9.056465-5.159594,9.056465-11.524357S48,9.380972,48,14.55619z"/>
	</g>
	<g opacity="0.3">
		<path fill="#FFFFFF" d="M38.187107,26.024651C42.689671,30.740791,48,33.770828,48,33.770828
			s16.000183-9.11541,16.000183-20.359726c0-1.063893-0.144161-2.029945-0.403557-2.901969
			C57.832981,18.839018,48.711597,24.659697,38.187107,26.024651z"/>
	</g>
</g>
</g></g>
<path style="animation: 1s linear -0.255s infinite normal forwards running blink-dd151398-1545-4d6e-9fb5-9f967decae16;" fill="#FFD113" d="M57.909828,4.981788c-0.931778-0.374649-1.675465-1.118337-2.050114-2.050115
	c-0.099037-0.246308-0.431274-0.246308-0.530312,0c-0.374649,0.931778-1.118336,1.675466-2.050114,2.050115
	c-0.246307,0.099036-0.246307,0.431273,0,0.530308c0.931778,0.374649,1.675465,1.118337,2.050114,2.050115
	c0.099037,0.246308,0.431274,0.246308,0.530312,0c0.374649-0.931778,1.118336-1.675466,2.050114-2.050115
	C58.156136,5.413061,58.156136,5.080824,57.909828,4.981788z"/>
<path style="animation: 1s linear -0.5s infinite normal forwards running blink-dd151398-1545-4d6e-9fb5-9f967decae16;" fill="#FFD113" d="M44.308002,11.625294c-1.490845-0.599439-2.680744-1.789338-3.280186-3.280184
	c-0.158455-0.394093-0.690033-0.394093-0.848492,0c-0.599438,1.490846-1.789337,2.680745-3.280182,3.280184
	c-0.394096,0.158458-0.394096,0.690036,0,0.848493c1.490845,0.599439,2.680744,1.789339,3.280182,3.280185
	c0.158459,0.394093,0.690037,0.394093,0.848492,0c0.599442-1.490846,1.789341-2.680746,3.280186-3.280185
	C44.702095,12.31533,44.702095,11.783751,44.308002,11.625294z"/>
<path style="animation: 1s linear -0.75s infinite normal forwards running blink-dd151398-1545-4d6e-9fb5-9f967decae16;" fill="#FFD113" d="M59.872883,23.594042c-1.118134-0.449579-2.010559-1.342003-2.46014-2.460138
	c-0.118843-0.295568-0.517525-0.295568-0.636368,0c-0.449581,1.118135-1.342007,2.010559-2.46014,2.460138
	c-0.295567,0.118843-0.295567,0.517527,0,0.63637c1.118134,0.449579,2.010559,1.342005,2.46014,2.460138
	c0.118843,0.29557,0.517525,0.29557,0.636368,0c0.449581-1.118134,1.342007-2.010559,2.46014-2.460138
	C60.168449,24.111568,60.168449,23.712885,59.872883,23.594042z"/>
<path style="animation: 1s linear 0s infinite normal forwards running blink-dd151398-1545-4d6e-9fb5-9f967decae16;" fill="#FFD113" d="M45.388092,32.279865c-1.261974-0.507416-2.269207-1.514647-2.776619-2.776621
	c-0.134132-0.333593-0.584106-0.333593-0.718235,0c-0.507416,1.261974-1.514645,2.269205-2.776623,2.776621
	c-0.333591,0.134129-0.333591,0.584103,0,0.718235c1.261978,0.507412,2.269207,1.514645,2.776623,2.776619
	c0.134129,0.333591,0.584103,0.333591,0.718235,0c0.507412-1.261974,1.514645-2.269207,2.776619-2.776619
	C45.721684,32.863968,45.721684,32.413994,45.388092,32.279865z"/>
<style id="blink-dd151398-1545-4d6e-9fb5-9f967decae16" data-anikit="">@keyframes blink-dd151398-1545-4d6e-9fb5-9f967decae16 {
  0% { opacity: 1; }
  52.965% { opacity: 1; }
  145.035% { opacity: 0; }
  7.93% { opacity: 0; }
  100% { opacity: 1; }
}</style>

<style id="breath-e9d2c079-4008-45dc-9e63-d90a51444cc3" data-anikit="">@keyframes breath-e9d2c079-4008-45dc-9e63-d90a51444cc3
{
  0% {
    animation-timing-function: cubic-bezier(0.9647,0.2413,-0.0705,0.7911);
    transform: scale(0.9099999999999999);
  }
  51% {
    animation-timing-function: cubic-bezier(0.9226,0.2631,-0.0308,0.7628);
    transform: scale(1.02994);
  }
  100% {
    transform: scale(0.9099999999999999);
  }
}</style><style id="wander-v-2c059fc0-6710-423b-a833-60130f5ceaee" data-anikit="">@keyframes wander-v-2c059fc0-6710-423b-a833-60130f5ceaee
{
  0% {
    animation-timing-function: cubic-bezier(0.7806,0.0715,0.8998,0.731);
    transform: translate(0,-1px);
  }
  17.5% {
    animation-timing-function: cubic-bezier(0.484,0.3308,0.6853,0.6667);
    transform: translate(0,-0.618px);
  }
  27.6% {
    animation-timing-function: cubic-bezier(0.2459,0.3343,0.4923,0.6717);
    transform: translate(0,0.248px);
  }
  35.1% {
    animation-timing-function: cubic-bezier(0.1317,0.3401,0.311,0.9176);
    transform: translate(0,0.749px);
  }
  50.1% {
    animation-timing-function: cubic-bezier(0.7773,0.0708,0.9008,0.735);
    transform: translate(0,1px);
  }
  67.6% {
    animation-timing-function: cubic-bezier(0.4888,0.331,0.6153,0.6674);
    transform: translate(0,0.616px);
  }
  80% {
    animation-timing-function: cubic-bezier(0.2539,0.3274,0.5671,0.676);
    transform: translate(0,-0.457px);
  }
  85% {
    animation-timing-function: cubic-bezier(0.1302,0.3349,0.3113,0.9183);
    transform: translate(0,-0.747px);
  }
  100% {
    transform: translate(0,-1px);
  }
}</style>

</svg>
