<?xml version="1.0" encoding="utf-8"?>
<!-- Generator: Adobe Illustrator 21.0.0, SVG Export Plug-In . SVG Version: 6.00 Build 0)  -->
<svg version="1.1" id="Layer_1" xmlns="http://www.w3.org/2000/svg" xmlns:xlink="http://www.w3.org/1999/xlink" x="0px" y="0px"
	 viewBox="0 0 140 44" enable-background="new 0 0 140 44" xml:space="preserve">
<g>
	<defs>
		<path id="SVGID_1_" d="M46.382946,4.747494l-9.708958,6.576499c-0.791962,0.536447-1.266335,1.430727-1.266335,2.387272v16.577415
			c0,0.956541,0.474369,1.850819,1.266327,2.387268l9.708958,6.576546c0.976566,0.661495,2.257557,0.661495,3.234123,0
			l9.708958-6.576546c0.791958-0.536449,1.266327-1.430727,1.266327-2.387268V13.711265
			c0-0.956545-0.474373-1.850825-1.266335-2.387272l-9.708958-6.576499C48.640491,4.086006,47.359509,4.086006,46.382946,4.747494z"
			/>
	</defs>
	<clipPath id="SVGID_2_">
		<use xlink:href="#SVGID_1_"  overflow="visible"/>
	</clipPath>
	<polygon opacity="0.9" clip-path="url(#SVGID_2_)" fill="#29AAE2" points="48,3.652161 35.407654,12.181763 35.407654,31.818176 
		48,40.347839 60.592346,31.818176 60.592346,12.181763 	"/>
	<polygon opacity="0.9" clip-path="url(#SVGID_2_)" fill="#0D71BA" points="48,9.880739 40.5,14.961007 40.5,29.038956 
		48,34.119259 55.5,29.038956 55.5,14.961007 	"/>
	<polygon opacity="0.3" clip-path="url(#SVGID_2_)" fill="#3BB54A" points="48,3.652161 35.407654,12.181763 48,19.05426 
		60.592346,12.181763 	"/>
	<polygon opacity="0.3" clip-path="url(#SVGID_2_)" fill="#0D71BA" points="48,19.05426 48,40.347839 60.592346,31.818176 
		60.592346,12.181763 60.592346,12.181763 	"/>
	<polygon opacity="0.3" clip-path="url(#SVGID_2_)" fill="#2E368F" points="35.407654,12.181763 35.407654,12.181763 
		35.407654,31.818176 48,40.347839 48,19.05426 	"/>
</g>
<path style="animation: 1s linear 0s infinite normal forwards running blink-dd151398-1545-4d6e-9fb5-9f967decae16;" fill="#FFD113" d="M57.460072,7.455489c-0.931778-0.374649-1.675465-1.118337-2.050114-2.050115
	c-0.099037-0.246308-0.431274-0.246308-0.530308,0c-0.374649,0.931778-1.11834,1.675466-2.050117,2.050115
	c-0.246307,0.099036-0.246307,0.431273,0,0.530308c0.931778,0.374649,1.675468,1.118337,2.050117,2.050115
	c0.099033,0.246308,0.431271,0.246308,0.530308,0c0.374649-0.931778,1.118336-1.675466,2.050114-2.050115
	C57.706379,7.886761,57.706379,7.554524,57.460072,7.455489z"/>
<path style="animation: 1s linear -0.255s infinite normal forwards running blink-dd151398-1545-4d6e-9fb5-9f967decae16;" fill="#FFD113" d="M43.289555,14.164124c-1.261978-0.507414-2.269207-1.514645-2.776623-2.776619
	c-0.134129-0.333593-0.584103-0.333593-0.718231,0c-0.507416,1.261974-1.514648,2.269205-2.776623,2.776619
	c-0.333591,0.134131-0.333591,0.584104,0,0.718235c1.261974,0.507415,2.269207,1.514645,2.776623,2.776619
	c0.134129,0.333593,0.584103,0.333593,0.718231,0c0.507416-1.261974,1.514645-2.269204,2.776623-2.776619
	C43.623146,14.748227,43.623146,14.298255,43.289555,14.164124z"/>
<path style="animation: 1s linear -0.495s infinite normal forwards running blink-dd151398-1545-4d6e-9fb5-9f967decae16;" fill="#FFD113" d="M54.497017,23.173805c-0.745422-0.299721-1.34037-0.89467-1.640091-1.640093
	c-0.079227-0.197046-0.345016-0.197046-0.424248,0c-0.299717,0.745422-0.894669,1.340372-1.640091,1.640093
	c-0.197044,0.079227-0.197044,0.345016,0,0.424246c0.745422,0.299719,1.340374,0.894669,1.640091,1.640091
	c0.079231,0.197048,0.34502,0.197048,0.424248,0c0.299721-0.745422,0.894669-1.340372,1.640091-1.640091
	C54.694065,23.518822,54.694065,23.253033,54.497017,23.173805z"/>
<path style="animation: 1s linear -0.755s infinite normal forwards running blink-dd151398-1545-4d6e-9fb5-9f967decae16;" fill="#FFD113" d="M44.938335,34.753567c-1.261974-0.507416-2.269207-1.514645-2.776619-2.776621
	c-0.134132-0.333593-0.584103-0.333593-0.718235,0c-0.507416,1.261976-1.514645,2.269205-2.776619,2.776621
	c-0.333595,0.134129-0.333595,0.584103,0,0.718235c1.261974,0.507412,2.269203,1.514645,2.776619,2.776619
	c0.134132,0.333591,0.584103,0.333591,0.718235,0c0.507412-1.261974,1.514645-2.269207,2.776619-2.776619
	C45.271927,35.337669,45.271927,34.887695,44.938335,34.753567z"/>
<style id="blink-dd151398-1545-4d6e-9fb5-9f967decae16" data-anikit="">@keyframes blink-dd151398-1545-4d6e-9fb5-9f967decae16 {
  0% { opacity: 1; }
  52.965% { opacity: 1; }
  145.035% { opacity: 0; }
  7.93% { opacity: 0; }
  100% { opacity: 1; }
}</style>
</svg>
