<svg width="528.0449829101562px" height="122.021240234375px" xmlns="http://www.w3.org/2000/svg" viewBox="-14.022491455078125 13.9893798828125 528.0449829101562 122.021240234375" style="background: rgba(0, 0, 0, 0);" preserveAspectRatio="xMidYMid"><defs><filter id="editing-golden" x="-100%" y="-100%" width="300%" height="300%"><feFlood flood-color="#000000" result="flood"></feFlood><feFlood flood-color="#fff694" result="flood-light"></feFlood><feComposite operator="in" in="flood" in2="SourceAlpha" result="flood-comp"></feComposite><feGaussianBlur in="flood-comp" stdDeviation="3" result="blur"></feGaussianBlur><feOffset in="blur" dy="3" result="offset-blur"></feOffset><feComponentTransfer in="offset-blur" result="comp-blur"><feFuncA type="linear" slope="0.7" intercept="-0.1"></feFuncA></feComponentTransfer><feSpecularLighting surfaceScale="200" specularConstant="20" specularExponent="1" lighting-color="#fff" in="blur" result="specular"><fePointLight x="-250" y="-250" z="3500"></fePointLight></feSpecularLighting><feComponentTransfer in="specular" result="inspecular"><feFuncA type="linear" slope="-1" intercept="1"></feFuncA></feComponentTransfer><feComposite operator="in" in="flood-light" in2="inspecular" result="inspecular2"></feComposite><feComposite operator="in" in="inspecular2" in2="SourceAlpha" result="light"></feComposite><feMerge><feMergeNode in="comp-blur"></feMergeNode><feMergeNode in="SourceGraphic"></feMergeNode><feMergeNode in="light"></feMergeNode></feMerge></filter></defs><g filter="url(#editing-golden)"><g transform="translate(64.52250123023987, 102.54718780517578)"><path d="M14.21 0L0.51 0L8.32-42.05L8.32-42.05Q14.66-42.75 23.90-42.75L23.90-42.75L23.90-42.75Q33.15-42.75 37.44-40.06L37.44-40.06L37.44-40.06Q41.73-37.38 41.73-31.97L41.73-31.97L41.73-31.97Q41.73-26.56 38.94-23.17L38.94-23.17L38.94-23.17Q36.16-19.78 31.36-18.69L31.36-18.69L31.36-18.69Q32.45-13.38 34.94-9.09L34.94-9.09L34.94-9.09Q37.25-5.06 39.94-3.78L39.94-3.78L39.94-3.78Q38.98-1.09 37.02 0.10L37.02 0.10L37.02 0.10Q35.07 1.28 32.29 1.28L32.29 1.28L32.29 1.28Q29.50 1.28 27.33-0.35L27.33-0.35L27.33-0.35Q25.15-1.98 23.42-4.99L23.42-4.99L23.42-4.99Q19.78-11.52 19.39-21.82L19.39-21.82L19.84-21.82L19.84-21.82Q24.58-21.95 26.94-24.42L26.94-24.42L26.94-24.42Q29.31-26.88 29.31-32.06L29.31-32.06L29.31-32.06Q29.31-38.53 23.87-38.78L23.87-38.78L22.46-38.78L22.46-38.78Q21.89-38.78 21.57-38.72L21.57-38.72L14.21 0ZM45.89-9.47L45.89-9.47L45.89-9.47Q45.89-11.97 46.53-15.17L46.53-15.17L51.71-42.24L65.86-42.24L60.74-14.98L60.74-14.98Q60.16-11.97 60.16-9.76L60.16-9.76L60.16-9.76Q60.16-7.55 61.09-6.40L61.09-6.40L61.09-6.40Q62.02-5.25 63.74-5.25L63.74-5.25L63.74-5.25Q65.47-5.25 66.56-5.70L66.56-5.70L66.56-5.70Q67.65-6.14 68.54-7.23L68.54-7.23L68.54-7.23Q70.27-9.41 71.36-14.98L71.36-14.98L76.54-42.24L86.21-42.24L81.09-15.04L81.09-15.04Q79.30-5.95 74.37-2.30L74.37-2.30L74.37-2.30Q69.57 1.28 60.10 1.28L60.10 1.28L60.10 1.28Q52.99 1.28 49.22-1.79L49.22-1.79L49.22-1.79Q45.89-4.48 45.89-9.47ZM86.85-0.32L86.85-0.32L94.91-42.24L94.91-42.24Q102.46-42.88 107.33-42.88L107.33-42.88L107.33-42.88Q112.19-42.88 115.33-42.46L115.33-42.46L115.33-42.46Q118.46-42.05 120.58-40.96L120.58-40.96L120.58-40.96Q124.80-38.91 124.80-33.28L124.80-33.28L124.80-33.28Q124.80-30.02 121.98-27.26L121.98-27.26L121.98-27.26Q119.36-24.77 116.48-24.19L116.48-24.19L116.48-24.19Q119.55-23.68 121.73-21.38L121.73-21.38L121.73-21.38Q124.03-18.94 124.03-15.17L124.03-15.17L124.03-15.17Q124.03-7.87 118.59-3.62L118.59-3.62L118.59-3.62Q113.15 0.64 102.46 0.64L102.46 0.64L102.46 0.64Q95.10 0.64 86.85-0.32ZM104.26-20.61L101.06-4.03L101.06-4.03Q101.63-3.97 101.76-3.97L101.76-3.97L102.34-3.97L102.34-3.97Q107.58-3.97 109.82-7.42L109.82-7.42L109.82-7.42Q111.49-10.11 111.49-15.04L111.49-15.04L111.49-15.04Q111.49-17.66 109.79-19.07L109.79-19.07L109.79-19.07Q108.10-20.48 104.26-20.61L104.26-20.61ZM113.98-33.22L113.98-33.22L113.98-33.22Q113.98-38.53 108.86-38.53L108.86-38.53L108.29-38.53L108.29-38.53Q108.03-38.53 107.65-38.46L107.65-38.46L105.09-24.96L105.73-24.96L105.73-24.96Q113.98-25.15 113.98-33.22ZM133.12 0L136.83-18.82L136.83-18.82Q134.98-36.16 128.45-39.87L128.45-39.87L128.45-39.87Q129.79-41.54 131.97-42.46L131.97-42.46L131.97-42.46Q134.14-43.39 136.77-43.39L136.77-43.39L136.77-43.39Q139.39-43.39 141.38-42.46L141.38-42.46L141.38-42.46Q143.36-41.54 144.64-39.55L144.64-39.55L144.64-39.55Q147.07-35.78 147.07-26.75L147.07-26.75L147.07-22.14L147.07-22.14Q150.91-33.41 154.75-38.27L154.75-38.27L154.75-38.27Q158.66-43.26 163.52-43.26L163.52-43.26L163.52-43.26Q165.44-43.26 166.72-42.27L166.72-42.27L166.72-42.27Q168-41.28 168.64-39.81L168.64-39.81L168.64-39.81Q163.71-37.63 158.98-31.36L158.98-31.36L158.98-31.36Q154.24-25.09 151.17-16.32L151.17-16.32L147.39 0L133.12 0ZM184.51 0.83L185.92-3.84L185.92-3.84Q188.16-2.62 191.49-2.62L191.49-2.62L191.49-2.62Q194.82-2.62 197.60-4.64L197.60-4.64L197.60-4.64Q200.38-6.66 202.37-10.37L202.37-10.37L202.37-10.37Q206.46-18.24 206.46-30.91L206.46-30.91L206.46-30.91Q206.46-38.98 202.82-38.98L202.82-38.98L202.82-38.98Q200.90-38.98 199.04-36.86L199.04-36.86L199.04-36.86Q197.18-34.75 195.71-31.36L195.71-31.36L195.71-31.36Q192.51-23.62 192.51-14.53L192.51-14.53L192.51-14.53Q192.51-12.67 193.41-11.55L193.41-11.55L193.41-11.55Q194.30-10.43 195.90-10.43L195.90-10.43L195.90-10.43Q195.65-8.45 193.92-7.04L193.92-7.04L193.92-7.04Q192.19-5.63 190.02-5.63L190.02-5.63L190.02-5.63Q184.83-5.63 182.18-8.86L182.18-8.86L182.18-8.86Q179.52-12.10 179.52-17.95L179.52-17.95L179.52-17.95Q179.52-23.81 181.31-28.42L181.31-28.42L181.31-28.42Q183.10-33.02 186.24-36.38L186.24-36.38L186.24-36.38Q189.38-39.74 193.70-41.66L193.70-41.66L193.70-41.66Q198.02-43.58 203.14-43.58L203.14-43.58L203.14-43.58Q220.29-43.58 220.29-26.88L220.29-26.88L220.29-26.88Q220.29-14.85 214.53-7.49L214.53-7.49L214.53-7.49Q208.77-0.06 198.78 0.83L198.78 0.83L198.78 0.83Q204.67 2.11 210.62 2.11L210.62 2.11L210.62 2.11Q215.30 2.11 218.75 0.13L218.75 0.13L218.75 0.13Q219.71-0.45 220.10-1.09L220.10-1.09L220.10-1.09Q222.02 0.64 222.02 4.06L222.02 4.06L222.02 4.06Q222.02 7.49 218.98 9.47L218.98 9.47L218.98 9.47Q215.94 11.46 210.02 11.46L210.02 11.46L210.02 11.46Q204.10 11.46 197.25 8.70L197.25 8.70L197.25 8.70Q190.40 5.95 184.51 0.83L184.51 0.83ZM224.58-9.47L224.58-9.47L224.58-9.47Q224.58-11.97 225.22-15.17L225.22-15.17L230.40-42.24L244.54-42.24L239.42-14.98L239.42-14.98Q238.85-11.97 238.85-9.76L238.85-9.76L238.85-9.76Q238.85-7.55 239.78-6.40L239.78-6.40L239.78-6.40Q240.70-5.25 242.43-5.25L242.43-5.25L242.43-5.25Q244.16-5.25 245.25-5.70L245.25-5.70L245.25-5.70Q246.34-6.14 247.23-7.23L247.23-7.23L247.23-7.23Q248.96-9.41 250.05-14.98L250.05-14.98L255.23-42.24L264.90-42.24L259.78-15.04L259.78-15.04Q257.98-5.95 253.06-2.30L253.06-2.30L253.06-2.30Q248.26 1.28 238.78 1.28L238.78 1.28L238.78 1.28Q231.68 1.28 227.90-1.79L227.90-1.79L227.90-1.79Q224.58-4.48 224.58-9.47ZM293.50-9.86L293.50-9.86L293.50-9.86Q294.72-8.32 294.72-5.82L294.72-5.82L294.72-5.82Q294.72-2.37 292.16-0.54L292.16-0.54L292.16-0.54Q289.60 1.28 285.57 1.28L285.57 1.28L285.57 1.28Q283.26 1.28 279.74 0.77L279.74 0.77L279.74 0.77Q272.83-0.32 270.72-0.32L270.72-0.32L270.72-0.32Q268.61-0.32 267.78-0.22L267.78-0.22L267.78-0.22Q266.94-0.13 265.60 0L265.60 0L273.47-42.24L301.06-42.24L301.06-42.24Q301.06-38.34 299.17-36.29L299.17-36.29L299.17-36.29Q297.28-34.24 293.57-34.24L293.57-34.24L293.57-34.24Q289.86-34.24 286.08-35.97L286.08-35.97L284.10-24.77L295.49-24.77L295.49-24.77Q295.49-21.38 293.82-19.49L293.82-19.49L293.82-19.49Q292.16-17.60 289.38-17.60L289.38-17.60L289.38-17.60Q286.59-17.60 284.86-18.24L284.86-18.24L284.86-18.24Q283.14-18.88 282.94-19.07L282.94-19.07L280.64-6.98L280.64-6.98Q282.18-6.78 285.06-6.78L285.06-6.78L285.06-6.78Q289.98-6.78 293.50-9.86ZM325.57-29.57L325.57-29.57L325.57-29.57Q326.53-31.49 326.53-33.28L326.53-33.28L326.53-33.28Q326.53-35.07 326.34-36.06L326.34-36.06L326.34-36.06Q326.14-37.06 325.70-37.82L325.70-37.82L325.70-37.82Q324.74-39.49 322.82-39.49L322.82-39.49L322.82-39.49Q320.45-39.49 318.53-37.76L318.53-37.76L318.53-37.76Q316.48-35.97 316.48-33.15L316.48-33.15L316.48-33.15Q316.48-31.36 317.73-29.98L317.73-29.98L317.73-29.98Q318.98-28.61 320.90-27.33L320.90-27.33L320.90-27.33Q322.82-26.05 324.99-24.77L324.99-24.77L324.99-24.77Q327.17-23.49 329.09-21.95L329.09-21.95L329.09-21.95Q333.50-18.43 333.50-13.70L333.50-13.70L333.50-13.70Q333.50-10.50 331.81-7.78L331.81-7.78L331.81-7.78Q330.11-5.06 327.30-3.07L327.30-3.07L327.30-3.07Q321.15 1.28 313.02 1.28L313.02 1.28L313.02 1.28Q306.43 1.28 303.04-0.86L303.04-0.86L303.04-0.86Q299.65-3.01 299.65-6.27L299.65-6.27L299.65-6.27Q299.65-12.10 304.19-13.57L304.19-13.57L304.19-13.57Q305.47-14.02 307.42-14.02L307.42-14.02L307.42-14.02Q309.38-14.02 311.62-13.18L311.62-13.18L311.62-13.18Q310.59-10.56 310.59-8.19L310.59-8.19L310.59-8.19Q310.59-3.07 314.24-3.07L314.24-3.07L314.24-3.07Q316.61-3.07 318.56-4.80L318.56-4.80L318.56-4.80Q320.51-6.53 320.51-8.48L320.51-8.48L320.51-8.48Q320.51-10.43 319.26-11.84L319.26-11.84L319.26-11.84Q318.02-13.25 316.16-14.37L316.16-14.37L316.16-14.37Q314.30-15.49 312.16-16.58L312.16-16.58L312.16-16.58Q310.02-17.66 308.16-19.20L308.16-19.20L308.16-19.20Q303.81-22.72 303.81-28.35L303.81-28.35L303.81-28.35Q303.81-32 305.60-34.85L305.60-34.85L305.60-34.85Q307.39-37.70 310.27-39.62L310.27-39.62L310.27-39.62Q316.03-43.52 323.10-43.52L323.10-43.52L323.10-43.52Q330.18-43.52 333.60-41.41L333.60-41.41L333.60-41.41Q337.02-39.30 337.02-35.71L337.02-35.71L337.02-35.71Q337.02-32.58 334.59-30.59L334.59-30.59L334.59-30.59Q332.48-28.93 329.92-28.93L329.92-28.93L329.92-28.93Q327.36-28.93 325.57-29.57ZM343.49-31.17L343.49-31.17L343.49-31.17Q341.31-32.83 341.31-36.38L341.31-36.38L341.31-36.38Q341.31-39.94 343.65-41.79L343.65-41.79L343.65-41.79Q345.98-43.65 350.02-43.65L350.02-43.65L350.02-43.65Q352.58-43.65 358.66-42.75L358.66-42.75L363.01-42.11L363.01-42.11Q365.18-41.86 367.46-41.86L367.46-41.86L367.46-41.86Q369.73-41.86 371.26-42.82L371.26-42.82L371.26-42.82Q373.57-40.77 373.57-37.82L373.57-37.82L373.57-37.82Q373.57-34.88 370.94-32.77L370.94-32.77L370.94-32.77Q368.26-30.53 364.80-30.53L364.80-30.53L364.80-30.53Q363.14-30.53 360.45-30.98L360.45-30.98L360.45-30.98Q357.31-21.12 357.31-14.27L357.31-14.27L357.31-14.27Q357.31-7.42 360.77-3.84L360.77-3.84L360.77-3.84Q359.17-0.96 356.80 0.16L356.80 0.16L356.80 0.16Q354.43 1.28 350.88 1.28L350.88 1.28L350.88 1.28Q347.33 1.28 345.12-0.67L345.12-0.67L345.12-0.67Q342.91-2.62 342.91-6.66L342.91-6.66L342.91-6.66Q342.91-11.33 345.47-19.01L345.47-19.01L345.47-19.01Q348.03-26.62 351.87-32.45L351.87-32.45L351.87-32.45Q350.02-32.64 348.10-32.64L348.10-32.64L348.10-32.64Q344.13-32.64 343.49-31.17Z" fill="#f7c61d"></path></g></g><style>text {
  font-size: 64px;
  font-family: Arial Black;
  dominant-baseline: central;
  text-anchor: middle;
}</style></svg>