<?xml version="1.0" encoding="utf-8"?>
<svg xmlns="http://www.w3.org/2000/svg" style="margin: auto; background: none; display: block; shape-rendering: auto;" width="220" height="36" preserveAspectRatio="xMidYMid">
<style type="text/css">
  text {
    text-anchor: middle; font-size: 35px; opacity: 0;
  }
</style>
<g style="transform-origin:110px 18px;transform:scale(1)">
<g transform="translate(110,18)">
  <g transform="translate(-5,2)"><g class="path" style="transform: matrix(0.01, 0, 0, 0.01, 0, 0); transform-origin: -79.59px -2.51962px; animation: 1s linear 0s 1 normal forwards running bounce-in-935a643f-1997-4268-892a-564bae893bc0;"><path d="M9.57-10.73L9.57 0L2.79 0L2.79-24.61L20.46-24.61L20.46-21.46L9.57-21.46L9.57-13.86L17.98-13.86L17.98-10.73L9.57-10.73" fill="#3c0f0f" stroke="none" stroke-width="none" transform="translate(-91.21499633789062,9.785382690429687)" style="fill: rgb(60, 15, 15);"></path></g><g class="path" style="transform: matrix(0.01, 0, 0, 0.01, 0, 0); transform-origin: -63.83px -2.51962px; animation: 1s linear 0.066s 1 normal forwards running bounce-in-935a643f-1997-4268-892a-564bae893bc0;"><path d="M30.78-24.61L30.78 0L23.99 0L23.99-24.61L30.78-24.61" fill="#3c0f0f" stroke="none" stroke-width="none" transform="translate(-91.21499633789062,9.785382690429687)" style="fill: rgb(249, 26, 16);"></path></g><g class="path" style="transform: matrix(0.01, 0, 0, 0.01, 0, 0); transform-origin: -43.62px -2.51962px; animation: 1s linear 0.132s 1 normal forwards running bounce-in-935a643f-1997-4268-892a-564bae893bc0;"><path d="M39.49-16.88L39.49 0L36.35 0L36.35-24.61L40.76-24.61L55.71-7.71L55.71-24.61L58.84-24.61L58.84 0L54.43 0L39.49-16.88" fill="#3c0f0f" stroke="none" stroke-width="none" transform="translate(-91.21499633789062,9.785382690429687)" style="fill: rgb(228, 107, 67);"></path></g><g class="path" style="transform: matrix(0.01, 0, 0, 0.01, 0, 0); transform-origin: -23.41px -2.51962px; animation: 1s linear 0.198s 1 normal forwards running bounce-in-935a643f-1997-4268-892a-564bae893bc0;"><path d="M71.20-24.61L71.20 0L64.41 0L64.41-24.61L71.20-24.61" fill="#3c0f0f" stroke="none" stroke-width="none" transform="translate(-91.21499633789062,9.785382690429687)" style="fill: rgb(237, 177, 149);"></path></g><g class="path" style="transform: matrix(0.01, 0, 0, 0.01, 0, 0); transform-origin: -5.09999px -2.56962px; animation: 1s linear 0.264s 1 normal forwards running bounce-in-935a643f-1997-4268-892a-564bae893bc0;"><path d="M96.93-7.52L96.93-7.52L96.93-7.52Q96.93-5.93 96.53-4.72L96.53-4.72L96.53-4.72Q96.13-3.50 95.40-2.61L95.40-2.61L95.40-2.61Q94.68-1.73 93.69-1.13L93.69-1.13L93.69-1.13Q92.70-0.53 91.52-0.17L91.52-0.17L91.52-0.17Q90.35 0.19 89.05 0.34L89.05 0.34L89.05 0.34Q87.74 0.50 86.39 0.50L86.39 0.50L86.39 0.50Q84.61 0.50 83.11 0.23L83.11 0.23L83.11 0.23Q81.60-0.03 80.28-0.61L80.28-0.61L80.28-0.61Q78.96-1.18 77.73-2.08L77.73-2.08L77.73-2.08Q76.51-2.99 75.30-4.29L75.30-4.29L78.78-7.83L78.78-7.83Q79.26-6.65 80.10-5.65L80.10-5.65L80.10-5.65Q80.94-4.65 81.94-3.93L81.94-3.93L81.94-3.93Q82.94-3.21 84.01-2.80L84.01-2.80L84.01-2.80Q85.09-2.39 86.05-2.39L86.05-2.39L86.05-2.39Q87.18-2.39 88.17-2.55L88.17-2.55L88.17-2.55Q89.16-2.72 89.89-3.09L89.89-3.09L89.89-3.09Q90.63-3.47 91.05-4.09L91.05-4.09L91.05-4.09Q91.46-4.72 91.46-5.66L91.46-5.66L91.46-5.66Q91.46-6.37 91.14-6.89L91.14-6.89L91.14-6.89Q90.82-7.40 90.29-7.77L90.29-7.77L90.29-7.77Q89.77-8.13 89.11-8.39L89.11-8.39L89.11-8.39Q88.44-8.65 87.75-8.83L87.75-8.83L87.75-8.83Q87.06-9.01 86.39-9.15L86.39-9.15L86.39-9.15Q85.72-9.30 85.21-9.45L85.21-9.45L85.21-9.45Q84.20-9.74 83.11-10.07L83.11-10.07L83.11-10.07Q82.01-10.41 80.95-10.83L80.95-10.83L80.95-10.83Q79.90-11.26 78.95-11.82L78.95-11.82L78.95-11.82Q78.00-12.37 77.28-13.13L77.28-13.13L77.28-13.13Q76.56-13.89 76.14-14.89L76.14-14.89L76.14-14.89Q75.71-15.89 75.71-17.19L75.71-17.19L75.71-17.19Q75.71-18.75 76.09-19.95L76.09-19.95L76.09-19.95Q76.48-21.16 77.18-22.05L77.18-22.05L77.18-22.05Q77.88-22.93 78.84-23.54L78.84-23.54L78.84-23.54Q79.79-24.15 80.94-24.52L80.94-24.52L80.94-24.52Q82.08-24.88 83.37-25.05L83.37-25.05L83.37-25.05Q84.66-25.21 86.01-25.21L86.01-25.21L86.01-25.21Q87.86-25.21 89.37-24.87L89.37-24.87L89.37-24.87Q90.88-24.52 92.17-23.89L92.17-23.89L92.17-23.89Q93.45-23.26 94.52-22.38L94.52-22.38L94.52-22.38Q95.58-21.50 96.52-20.42L96.52-20.42L93.04-16.88L93.04-16.88Q92.63-18.12 91.90-19.11L91.90-19.11L91.90-19.11Q91.17-20.10 90.29-20.81L90.29-20.81L90.29-20.81Q89.40-21.52 88.42-21.90L88.42-21.90L88.42-21.90Q87.45-22.29 86.54-22.29L86.54-22.29L86.54-22.29Q85.36-22.29 84.37-22.12L84.37-22.12L84.37-22.12Q83.38-21.96 82.67-21.59L82.67-21.59L82.67-21.59Q81.96-21.23 81.57-20.60L81.57-20.60L81.57-20.60Q81.18-19.98 81.18-19.06L81.18-19.06L81.18-19.06Q81.18-18.32 81.47-17.81L81.47-17.81L81.47-17.81Q81.76-17.29 82.24-16.94L82.24-16.94L82.24-16.94Q82.73-16.58 83.35-16.35L83.35-16.35L83.35-16.35Q83.96-16.12 84.62-15.94L84.62-15.94L84.62-15.94Q85.28-15.77 85.92-15.65L85.92-15.65L85.92-15.65Q86.56-15.52 87.09-15.36L87.09-15.36L87.09-15.36Q88.12-15.07 89.24-14.75L89.24-14.75L89.24-14.75Q90.37-14.42 91.46-13.99L91.46-13.99L91.46-13.99Q92.56-13.55 93.55-12.99L93.55-12.99L93.55-12.99Q94.54-12.42 95.29-11.65L95.29-11.65L95.29-11.65Q96.04-10.87 96.49-9.85L96.49-9.85L96.49-9.85Q96.93-8.84 96.93-7.52" fill="#3c0f0f" stroke="none" stroke-width="none" transform="translate(-91.21499633789062,9.785382690429687)" style="fill: rgb(42, 167, 201);"></path></g><g class="path" style="transform: matrix(0.01, 0, 0, 0.01, 0, 0); transform-origin: 21.215px -2.51962px; animation: 1s linear 0.33s 1 normal forwards running bounce-in-935a643f-1997-4268-892a-564bae893bc0;"><path d="M107.94-10.73L107.94 0L101.15 0L101.15-24.61L107.94-24.61L107.94-13.86L116.93-13.86L116.93-24.61L123.71-24.61L123.71 0L116.93 0L116.93-10.73L107.94-10.73" fill="#3c0f0f" stroke="none" stroke-width="none" transform="translate(-91.21499633789062,9.785382690429687)" style="fill: rgb(6, 98, 141);"></path></g><g class="path" style="transform: matrix(0.01, 0, 0, 0.01, 0, 0); transform-origin: 46.905px -2.51962px; animation: 1s linear 0.396s 1 normal forwards running bounce-in-935a643f-1997-4268-892a-564bae893bc0;"><path d="M146.96-3.14L146.96 0L129.28 0L129.28-24.61L146.96-24.61L146.96-21.46L136.07-21.46L136.07-13.86L144.48-13.86L144.48-10.73L136.07-10.73L136.07-3.14L146.96-3.14" fill="#3c0f0f" stroke="none" stroke-width="none" transform="translate(-91.21499633789062,9.785382690429687)" style="fill: rgb(4, 40, 77);"></path></g><g class="path" style="transform: matrix(0.01, 0, 0, 0.01, 0, 0); transform-origin: 71.875px -2.51962px; animation: 1s linear 0.462s 1 normal forwards running bounce-in-935a643f-1997-4268-892a-564bae893bc0;"><path d="M175.02-12.34L175.02-12.34L175.02-12.34Q175.02-10.54 174.54-8.93L174.54-8.93L174.54-8.93Q174.06-7.31 173.20-5.95L173.20-5.95L173.20-5.95Q172.33-4.58 171.14-3.48L171.14-3.48L171.14-3.48Q169.94-2.38 168.50-1.61L168.50-1.61L168.50-1.61Q167.05-0.84 165.40-0.42L165.40-0.42L165.40-0.42Q163.75 0 162.01 0L162.01 0L151.16 0L151.16-24.61L162.01-24.61L162.01-24.61Q163.75-24.61 165.40-24.20L165.40-24.20L165.40-24.20Q167.04-23.79 168.48-23.03L168.48-23.03L168.48-23.03Q169.92-22.27 171.13-21.17L171.13-21.17L171.13-21.17Q172.33-20.08 173.20-18.72L173.20-18.72L173.20-18.72Q174.06-17.36 174.54-15.75L174.54-15.75L174.54-15.75Q175.02-14.13 175.02-12.34zM168.13-12.34L168.13-12.34L168.13-12.34Q168.13-14.34 167.64-16.14L167.64-16.14L167.64-16.14Q167.16-17.94 166.13-19.31L166.13-19.31L166.13-19.31Q165.10-20.68 163.52-21.48L163.52-21.48L163.52-21.48Q161.94-22.29 159.74-22.29L159.74-22.29L157.94-22.29L157.94-2.39L159.74-2.39L159.74-2.39Q161.91-2.39 163.49-3.20L163.49-3.20L163.49-3.20Q165.07-4.02 166.10-5.39L166.10-5.39L166.10-5.39Q167.14-6.77 167.63-8.56L167.63-8.56L167.63-8.56Q168.13-10.36 168.13-12.34" fill="#3c0f0f" stroke="none" stroke-width="none" transform="translate(-91.21499633789062,9.785382690429687)" style="fill: rgb(60, 15, 15);"></path></g><g class="path" style="transform: matrix(0.01, 0, 0, 0.01, 0, 0); transform-origin: 90.895px -6.74962px; animation: 1s linear 0.528s 1 normal forwards running bounce-in-935a643f-1997-4268-892a-564bae893bc0;"><path d="M178.45-26.32L185.77-26.32L183.85-6.75L180.35-6.75L178.45-26.32" fill="#3c0f0f" stroke="none" stroke-width="none" transform="translate(-91.21499633789062,9.785382690429687)" style="fill: rgb(249, 26, 16);"></path></g><g class="path" style="transform: matrix(0.01, 0, 0, 0.01, 0, 0); transform-origin: 90.885px 7.23038px; animation: 1s linear 0.594s 1 normal forwards running bounce-in-935a643f-1997-4268-892a-564bae893bc0;"><path d="M185.22-2.56L185.22-2.56L185.22-2.56Q185.22-1.91 184.97-1.34L184.97-1.34L184.97-1.34Q184.72-0.77 184.31-0.35L184.31-0.35L184.31-0.35Q183.89 0.07 183.31 0.32L183.31 0.32L183.31 0.32Q182.74 0.56 182.11 0.56L182.11 0.56L182.11 0.56Q181.46 0.56 180.89 0.32L180.89 0.32L180.89 0.32Q180.31 0.07 179.90-0.35L179.90-0.35L179.90-0.35Q179.48-0.77 179.23-1.34L179.23-1.34L179.23-1.34Q178.98-1.91 178.98-2.56L178.98-2.56L178.98-2.56Q178.98-3.20 179.23-3.77L179.23-3.77L179.23-3.77Q179.48-4.34 179.90-4.76L179.90-4.76L179.90-4.76Q180.31-5.18 180.89-5.43L180.89-5.43L180.89-5.43Q181.46-5.67 182.11-5.67L182.11-5.67L182.11-5.67Q182.74-5.67 183.31-5.43L183.31-5.43L183.31-5.43Q183.89-5.18 184.31-4.76L184.31-4.76L184.31-4.76Q184.72-4.34 184.97-3.77L184.97-3.77L184.97-3.77Q185.22-3.20 185.22-2.56" fill="#3c0f0f" stroke="none" stroke-width="none" transform="translate(-91.21499633789062,9.785382690429687)" style="fill: rgb(228, 107, 67);"></path></g></g>
</g>
</g>
<style id="bounce-in-935a643f-1997-4268-892a-564bae893bc0" data-anikit="">@keyframes bounce-in-935a643f-1997-4268-892a-564bae893bc0
{
  0% {
    animation-timing-function: cubic-bezier(0.0383,0.3388,0.0421,0.6652);
    transform: matrix(0.01,0,0,0.01,0,0);
    opacity: 1;
  }
  4.7% {
    animation-timing-function: cubic-bezier(0.3296,0.3336,0.5772,0.6672);
    transform: matrix(0.556,0,0,0.556,0,0);
    opacity: 1;
  }
  8.4% {
    animation-timing-function: cubic-bezier(0.0781,0.1617,0.0874,0.9301);
    transform: matrix(0.979,0,0,0.979,0,0);
    opacity: 1;
  }
  12.4% {
    animation-timing-function: cubic-bezier(0.8341,0.1496,0.8634,0.7673);
    transform: matrix(1.153,0,0,1.153,0,0);
    opacity: 1;
  }
  16.3% {
    animation-timing-function: cubic-bezier(0.3264,0.3332,0.5758,0.6695);
    transform: matrix(1.008,0,0,1.008,0,0);
    opacity: 1;
  }
  21.2% {
    animation-timing-function: cubic-bezier(0.0921,0.1883,0.3277,1);
    transform: matrix(0.704,0,0,0.704,0,0);
    opacity: 1;
  }
  24.5% {
    animation-timing-function: cubic-bezier(0.6905,0.0944,0.8759,0.7624);
    transform: matrix(0.626,0,0,0.626,0,0);
    opacity: 1;
  }
  27.7% {
    animation-timing-function: cubic-bezier(0.3688,0.332,0.624,0.6684);
    transform: matrix(0.704,0,0,0.704,0,0);
    opacity: 1;
  }
  32.6% {
    animation-timing-function: cubic-bezier(0.1368,0.2364,0.2451,0.9049);
    transform: matrix(0.958,0,0,0.958,0,0);
    opacity: 1;
  }
  37.4% {
    animation-timing-function: cubic-bezier(0.5936,0.0846,0.3495,1);
    transform: matrix(1.085,0,0,1.085,0,0);
    opacity: 1;
  }
  49.5% {
    animation-timing-function: cubic-bezier(0.5522,0.0981,0.3807,1);
    transform: matrix(0.802,0,0,0.802,0,0);
    opacity: 1;
  }
  62.4% {
    animation-timing-function: cubic-bezier(0.4497,0.1349,0.4911,1);
    transform: matrix(1.044,0,0,1.044,0,0);
    opacity: 1;
  }
  74.1% {
    animation-timing-function: cubic-bezier(0.429,0,0.5239,1);
    transform: matrix(0.914,0,0,0.914,0,0);
    opacity: 1;
  }
  87% {
    animation-timing-function: cubic-bezier(0.3501,0,0.6422,1);
    transform: matrix(1.013,0,0,1.013,0,0);
    opacity: 1;
  }
  95.8% {
    animation-timing-function: cubic-bezier(0.3653,0,0.6776,1);
    transform: matrix(0.992,0,0,0.992,0,0);
    opacity: 1;
  }
  100% {
    transform: matrix(1,0,0,1,0,0);
    opacity: 1;
  }
}</style></svg>